<?xml version="1.0" standalone="no"?>
<!DOCTYPE svg PUBLIC "-//W3C//DTD SVG 1.1//EN" "http://www.w3.org/Graphics/SVG/1.1/DTD/svg11.dtd" >
<svg xmlns="http://www.w3.org/2000/svg" xmlns:xlink="http://www.w3.org/1999/xlink" version="1.1" viewBox="-10 0 1010 1000">
   <path fill="currentColor"
d="M497 216c95 0 180 72 180 165h155v33h-155c-4 38 -19 72 -42 99l118 119l-23 24l-119 -119c-27 22 -60 35 -96 39v161h-33v-160c-38 0 -72 -18 -100 -41l-119 120l-24 -24l120 -119c-23 -27 -38 -61 -42 -98h-151v-34h151c0 -93 85 -165 180 -165zM497 249
c-81 0 -148 67 -148 148h296c0 -86 -69 -148 -148 -148z" />
</svg>
