<?xml version="1.0" standalone="no"?>
<!DOCTYPE svg PUBLIC "-//W3C//DTD SVG 1.1//EN" "http://www.w3.org/Graphics/SVG/1.1/DTD/svg11.dtd" >
<svg xmlns="http://www.w3.org/2000/svg" xmlns:xlink="http://www.w3.org/1999/xlink" version="1.1" viewBox="-10 0 1010 1000">
   <path fill="currentColor"
d="M866 110l15 16l-249 249c28 32 45 73 45 119c0 100 -82 181 -181 181c-46 0 -88 -17 -120 -45l-122 122l40 41l-225 129l126 -230l44 45l122 -122c-29 -32 -46 -75 -46 -121c0 -100 81 -181 181 -181c46 0 88 17 120 46zM496 346c-82 0 -148 66 -148 148
c0 37 14 71 36 97l209 -208c-26 -23 -60 -37 -97 -37zM608 398l-208 209c26 22 59 35 96 35c81 0 147 -66 147 -148c0 -37 -13 -70 -35 -96zM132 86l-47 127h94zM113 51h39l98 257h-36l-24 -66h-115l-24 66h-36zM383 86l-47 127h94zM363 51h39l98 257h-36l-23 -66h-116
l-23 66h-37z" />
</svg>
