<?xml version="1.0" standalone="no"?>
<!DOCTYPE svg PUBLIC "-//W3C//DTD SVG 1.1//EN" "http://www.w3.org/Graphics/SVG/1.1/DTD/svg11.dtd" >
<svg xmlns="http://www.w3.org/2000/svg" xmlns:xlink="http://www.w3.org/1999/xlink" version="1.1" viewBox="-10 0 1010 1000">
   <path fill="currentColor"
d="M496 215c94 0 180 74 180 166h155v33h-156c-4 37 -18 72 -42 99l119 119l-24 23l-118 -118c-26 22 -60 35 -96 39v161h-34v-160c-37 0 -72 -18 -99 -41l-119 119l-24 -23l120 -120c-23 -27 -38 -61 -42 -98h-151v-33h151c0 -93 85 -166 180 -166zM497 249v149h147
c0 -81 -66 -148 -147 -149z" />
</svg>
