<?xml version="1.0" standalone="no"?>
<!DOCTYPE svg PUBLIC "-//W3C//DTD SVG 1.1//EN" "http://www.w3.org/Graphics/SVG/1.1/DTD/svg11.dtd" >
<svg xmlns="http://www.w3.org/2000/svg" xmlns:xlink="http://www.w3.org/1999/xlink" version="1.1" viewBox="-10 0 1010 1000">
   <path fill="currentColor"
d="M481 58h34v156c37 4 72 18 99 41l118 -119l24 23l-120 120c23 27 41 63 41 100h155v33h-156c0 91 -85 163 -179 163c-93 0 -180 -72 -180 -163h-151v-33h151c0 -38 17 -74 41 -101l-119 -119l24 -23l118 119c27 -24 62 -42 100 -42v-155zM498 246v148h147
c0 -81 -66 -148 -147 -148zM349 397c0 80 69 144 149 144v-144h-149z" />
</svg>
