<?xml version="1.0" standalone="no"?>
<!DOCTYPE svg PUBLIC "-//W3C//DTD SVG 1.1//EN" "http://www.w3.org/Graphics/SVG/1.1/DTD/svg11.dtd" >
<svg xmlns="http://www.w3.org/2000/svg" xmlns:xlink="http://www.w3.org/1999/xlink" version="1.1" viewBox="-10 0 1010 1000">
   <path fill="currentColor"
d="M730 655l-119 -118c-27 21 -60 39 -96 39v161h-33v-160c-38 -4 -72 -18 -100 -41l-119 119l-24 -23l119 -119c-22 -27 -37 -61 -41 -98h-151v-34h151c0 -92 85 -166 180 -166s172 73 180 166h155v33h-155c-4 38 -19 72 -42 99l118 119zM349 396c0 82 66 148 148 148
c81 0 148 -66 148 -148c0 -81 -67 -147 -148 -147c-82 0 -148 66 -148 147z" />
</svg>
