<?xml version="1.0" standalone="no"?>
<!DOCTYPE svg PUBLIC "-//W3C//DTD SVG 1.1//EN" "http://www.w3.org/Graphics/SVG/1.1/DTD/svg11.dtd" >
<svg xmlns="http://www.w3.org/2000/svg" xmlns:xlink="http://www.w3.org/1999/xlink" version="1.1" viewBox="-10 0 1010 1000">
   <path fill="currentColor"
d="M869 104l16 16l-251 251c28 32 45 74 45 120c0 101 -82 182 -182 182c-46 0 -88 -17 -120 -45l-123 123l40 41l-227 130l127 -232l44 45l123 -122c-29 -33 -47 -75 -47 -122c0 -100 82 -182 183 -182c46 0 89 17 121 46zM497 342c-83 0 -149 67 -149 149
c0 38 14 72 37 98l210 -210c-26 -23 -61 -37 -98 -37zM610 395l-210 210c26 22 60 35 97 35c82 0 149 -67 149 -149c0 -37 -14 -70 -36 -96zM229 61v37c-12 -11 -24 -19 -38 -24c-13 -6 -27 -9 -42 -9c-29 0 -52 9 -68 28c-15 18 -23 44 -23 78s8 60 23 78
c16 18 39 27 68 27c15 0 29 -3 42 -8c14 -6 26 -14 38 -25v37c-12 8 -25 14 -39 18c-13 4 -28 6 -43 6c-39 0 -70 -11 -92 -35c-23 -24 -34 -57 -34 -98c0 -42 11 -74 34 -98c22 -24 53 -36 92 -36c15 0 30 2 44 6c13 4 26 10 38 18zM388 65c-26 0 -46 9 -61 28
s-22 45 -22 78c0 32 7 58 22 77s35 28 61 28c25 0 45 -9 60 -28s22 -45 22 -77c0 -33 -7 -59 -22 -78s-35 -28 -60 -28zM388 37c36 0 65 12 87 36c21 24 32 57 32 98c0 40 -11 73 -32 97c-22 24 -51 36 -87 36s-65 -12 -87 -36s-33 -57 -33 -97c0 -41 11 -74 33 -98
s51 -36 87 -36zM567 277h73v18h-98v-18c8 -8 19 -19 32 -33c14 -14 23 -23 26 -27c7 -7 12 -14 14 -19c3 -5 4 -10 4 -15c0 -8 -3 -15 -9 -20c-5 -6 -13 -8 -22 -8c-7 0 -14 1 -21 3c-7 3 -15 6 -23 11v-21c8 -4 16 -6 23 -8c8 -2 14 -3 21 -3c16 0 28 4 38 12
c9 8 14 19 14 32c0 7 -1 13 -3 19c-3 5 -7 12 -13 20l-17 17c-9 10 -22 23 -39 40z" />
</svg>
