<?xml version="1.0" standalone="no"?>
<!DOCTYPE svg PUBLIC "-//W3C//DTD SVG 1.1//EN" "http://www.w3.org/Graphics/SVG/1.1/DTD/svg11.dtd" >
<svg xmlns="http://www.w3.org/2000/svg" xmlns:xlink="http://www.w3.org/1999/xlink" version="1.1" viewBox="-10 0 1010 1000">
   <path fill="currentColor"
d="M869 106l16 15l-251 252c28 32 45 74 45 120c0 100 -82 182 -182 182c-46 0 -88 -17 -120 -45l-123 123l40 41l-227 130l127 -232l44 45l123 -123c-29 -32 -47 -75 -47 -121c0 -101 82 -183 183 -183c46 0 89 18 121 47zM497 344c-83 0 -149 66 -149 149
c0 37 14 71 36 98l211 -211c-26 -22 -61 -36 -98 -36zM610 396l-210 210c26 22 60 36 97 36c82 0 149 -67 149 -149c0 -37 -14 -71 -36 -97zM371 270v-69h-57v-29h92v111c-14 9 -28 17 -45 22c-16 5 -33 7 -52 7c-40 0 -72 -12 -95 -35c-22 -24 -34 -57 -34 -99
s12 -75 34 -99c23 -23 55 -35 95 -35c17 0 33 2 48 6s29 10 42 19v37c-13 -11 -26 -19 -41 -25s-30 -8 -46 -8c-31 0 -55 9 -71 26c-16 18 -24 44 -24 79s8 61 24 79c16 17 40 26 71 26c12 0 24 -1 33 -3c10 -2 19 -5 26 -10z" />
</svg>
